<svg width="20" height="20" viewBox="0 0 20 20" fill="none" xmlns="http://www.w3.org/2000/svg">
<path fill-rule="evenodd" clip-rule="evenodd" d="M1.6665 9.99996C1.6665 5.39759 5.39746 1.66663 9.99984 1.66663C14.6022 1.66663 18.3332 5.39759 18.3332 9.99996C18.3332 14.6023 14.6022 18.3333 9.99984 18.3333C5.39746 18.3333 1.6665 14.6023 1.6665 9.99996ZM9.99984 3.33329C6.31794 3.33329 3.33317 6.31806 3.33317 9.99996C3.33317 13.6819 6.31794 16.6666 9.99984 16.6666C13.6817 16.6666 16.6665 13.6819 16.6665 9.99996C16.6665 6.31806 13.6817 3.33329 9.99984 3.33329Z" fill="#9E9E9E"/>
<path fill-rule="evenodd" clip-rule="evenodd" d="M13.867 6.8598C14.2206 7.15443 14.2683 7.6799 13.9737 8.03347L9.80702 13.0335C9.66154 13.208 9.45109 13.3156 9.22439 13.3313C8.99769 13.347 8.77442 13.2695 8.60627 13.1166L6.10627 10.8439C5.76573 10.5343 5.74063 10.0072 6.05022 9.66669C6.35981 9.32614 6.88685 9.30105 7.2274 9.61064L9.08363 11.2981L12.6933 6.96649C12.988 6.61293 13.5134 6.56516 13.867 6.8598Z" fill="#9E9E9E"/>
</svg>
