<svg width="15" height="15" viewBox="0 0 15 15" fill="none" xmlns="http://www.w3.org/2000/svg">
<path fill-rule="evenodd" clip-rule="evenodd" d="M1.25 4.375C1.25 2.64911 2.64911 1.25 4.375 1.25H10.625C12.3509 1.25 13.75 2.64911 13.75 4.375V10.625C13.75 12.3509 12.3509 13.75 10.625 13.75H4.375C2.64911 13.75 1.25 12.3509 1.25 10.625V4.375ZM4.375 2.5C3.33947 2.5 2.5 3.33947 2.5 4.375V10.625C2.5 11.6605 3.33947 12.5 4.375 12.5H10.625C11.6605 12.5 12.5 11.6605 12.5 10.625V4.375C12.5 3.33947 11.6605 2.5 10.625 2.5H4.375Z" fill="white"/>
<path fill-rule="evenodd" clip-rule="evenodd" d="M5.625 5C5.27982 5 5 5.27982 5 5.625C5 5.97018 5.27982 6.25 5.625 6.25C5.97018 6.25 6.25 5.97018 6.25 5.625C6.25 5.27982 5.97018 5 5.625 5ZM3.75 5.625C3.75 4.58947 4.58947 3.75 5.625 3.75C6.66053 3.75 7.5 4.58947 7.5 5.625C7.5 6.66053 6.66053 7.5 5.625 7.5C4.58947 7.5 3.75 6.66053 3.75 5.625Z" fill="white"/>
<path fill-rule="evenodd" clip-rule="evenodd" d="M9.95432 8.79653C9.68539 8.57243 9.28485 8.61288 9.06616 8.88624L8.06667 10.1356C7.46592 10.8865 6.39073 11.0535 5.59057 10.52C5.32991 10.3463 4.97964 10.4006 4.78394 10.6453L2.9878 12.8904L2.01172 12.1096L3.80785 9.8644C4.4086 9.11346 5.4838 8.94653 6.28395 9.47997C6.54461 9.65375 6.89488 9.59936 7.09058 9.35473L8.09008 8.10537C8.74613 7.2853 9.94776 7.16393 10.7546 7.83626L13.5249 10.1449L12.7246 11.1051L9.95432 8.79653Z" fill="white"/>
</svg>
