<svg width="20" height="20" viewBox="0 0 20 20" fill="none" xmlns="http://www.w3.org/2000/svg">
<path fill-rule="evenodd" clip-rule="evenodd" d="M5.83317 3.33329C4.45246 3.33329 3.33317 4.45258 3.33317 5.83329V14.1666C3.33317 15.5473 4.45246 16.6666 5.83317 16.6666H14.1665C15.5472 16.6666 16.6665 15.5473 16.6665 14.1666V9.16663C16.6665 8.70639 17.0396 8.33329 17.4998 8.33329C17.9601 8.33329 18.3332 8.70639 18.3332 9.16663V14.1666C18.3332 16.4678 16.4677 18.3333 14.1665 18.3333H5.83317C3.53198 18.3333 1.6665 16.4678 1.6665 14.1666V5.83329C1.6665 3.53211 3.53198 1.66663 5.83317 1.66663H10.8332C11.2934 1.66663 11.6665 2.03972 11.6665 2.49996C11.6665 2.9602 11.2934 3.33329 10.8332 3.33329H5.83317Z" fill="#3F7AD2"/>
<path fill-rule="evenodd" clip-rule="evenodd" d="M15.9976 3.33329C15.8202 3.33329 15.6501 3.40376 15.5247 3.5292L8.96047 10.0934L8.64516 11.3547L9.90641 11.0393L16.4706 4.47514C16.5961 4.3497 16.6665 4.17957 16.6665 4.00217C16.6665 3.82477 16.5961 3.65464 16.4706 3.5292C16.3452 3.40376 16.175 3.33329 15.9976 3.33329ZM14.3462 2.35069C14.7842 1.91269 15.3782 1.66663 15.9976 1.66663C16.6171 1.66663 17.2111 1.91269 17.6491 2.35069C18.0871 2.78869 18.3332 3.38275 18.3332 4.00217C18.3332 4.62159 18.0871 5.21565 17.6491 5.65365L10.9217 12.3811C10.8149 12.4879 10.6811 12.5636 10.5346 12.6003L7.70197 13.3084C7.41799 13.3794 7.11758 13.2962 6.9106 13.0892C6.70362 12.8822 6.62041 12.5818 6.6914 12.2978L7.39955 9.46525C7.43618 9.31872 7.51195 9.18491 7.61875 9.07811L14.3462 2.35069Z" fill="#3F7AD2"/>
<path fill-rule="evenodd" clip-rule="evenodd" d="M12.7441 4.4107C13.0695 4.08527 13.5972 4.08527 13.9226 4.4107L15.5893 6.07737C15.9147 6.40281 15.9147 6.93044 15.5893 7.25588C15.2638 7.58132 14.7362 7.58132 14.4107 7.25588L12.7441 5.58921C12.4186 5.26378 12.4186 4.73614 12.7441 4.4107Z" fill="#3F7AD2"/>
</svg>
